<svg version="1.1" id="Layer_1" xmlns="http://www.w3.org/2000/svg" xmlns:xlink="http://www.w3.org/1999/xlink" x="0px" y="0px"
	 width="100%" viewBox="0 0 1037 1032" enable-background="new 0 0 1037 1032" xml:space="preserve">
<path fill="#2D3237" opacity="1.000000" stroke="none" 
	d="
M654.000000,1033.000000 
	C437.526031,1033.000000 221.552094,1032.990112 5.578173,1033.084473 
	C1.975078,1033.086060 0.893844,1032.506714 0.895149,1028.579224 
	C1.008495,687.620361 1.009965,346.661469 0.883491,5.702618 
	C0.881951,1.548876 1.840388,0.894711 5.796314,0.896010 
	C348.254974,1.008445 690.713684,1.007949 1033.172363,0.900485 
	C1037.062988,0.899264 1038.121948,1.450589 1038.120361,5.671284 
	C1037.989502,346.630096 1037.991943,687.588989 1038.100830,1028.547852 
	C1038.102051,1032.407959 1037.119751,1033.092773 1033.453125,1033.089600 
	C907.135498,1032.982056 780.817749,1033.000000 654.000000,1033.000000 
z"/>
<path fill="#FFFCF4" opacity="1.000000" stroke="none" 
	d="
M332.690125,189.542206 
	C364.555115,189.143738 396.047424,189.128067 427.538727,188.944077 
	C430.940918,188.924194 430.762482,190.696136 430.758820,193.001373 
	C430.733795,208.832169 430.769623,224.663055 430.778656,240.493912 
	C430.866364,393.969910 430.952698,547.445923 431.039276,700.921936 
	C431.040283,702.696045 431.039398,704.470154 431.039398,706.481812 
	C433.384674,705.805115 434.330139,704.154419 435.561432,702.935181 
	C458.887726,679.835999 481.838043,656.344543 505.571106,633.672241 
	C530.968567,609.409973 555.703247,584.489075 580.646790,559.775757 
	C583.726746,556.724243 585.090637,557.650940 587.539612,560.132446 
	C633.772400,606.979980 680.076904,653.756958 726.356079,700.558777 
	C727.616150,701.833069 728.762024,703.220215 731.034546,705.749329 
	C731.034546,702.267761 731.035583,700.366882 731.034424,698.466003 
	C730.935974,530.825562 730.833801,363.185089 730.750793,195.544632 
	C730.747192,188.352524 729.924683,189.282074 737.215210,189.268753 
	C765.710693,189.216644 794.207642,189.343048 822.700562,189.057648 
	C827.525085,189.009323 828.294250,190.573792 828.296753,194.906937 
	C828.419800,409.373352 828.629822,623.839783 829.011230,838.305847 
	C829.020569,843.568054 827.519165,844.492676 822.673523,844.458191 
	C794.179626,844.255493 765.682434,844.302429 737.188538,844.531494 
	C732.945862,844.565552 730.108093,843.196350 727.216309,840.269409 
	C680.603210,793.089966 633.864929,746.034119 587.277954,698.828918 
	C584.254578,695.765381 582.712524,695.209839 579.369019,698.602234 
	C561.121887,717.115662 542.920410,735.698242 524.054871,753.572754 
	C493.479645,782.541931 463.979584,812.589294 433.993683,842.148560 
	C432.035675,844.078674 430.034180,844.763428 427.355469,844.758240 
	C396.526672,844.698486 365.697632,844.734680 334.398193,844.693481 
	C332.166992,843.476379 331.991669,841.654785 331.909363,839.788940 
	C331.784424,836.957642 331.819763,834.124756 331.819580,831.292419 
	C331.813385,739.149231 332.685486,646.995789 331.596741,554.865356 
	C330.200897,436.746368 331.441833,318.634094 330.870575,200.520691 
	C330.853333,196.959488 329.871429,193.150421 332.690125,189.542206 
z"/>
<path fill="#DDA97C" opacity="1.000000" stroke="none" 
	d="
M332.598022,189.126343 
	C333.154785,307.129211 332.905640,425.051666 333.444885,542.970520 
	C333.884338,639.068726 333.616882,735.165894 333.900391,831.263062 
	C333.912659,835.426575 333.950500,839.589905 333.952087,844.197510 
	C332.472656,846.758850 330.268951,845.827271 328.415863,845.832275 
	C299.431763,845.911133 270.446136,845.777161 241.464310,846.051453 
	C236.597504,846.097534 235.876953,844.432068 235.876160,840.143250 
	C235.844604,670.401978 235.714294,500.660645 235.568558,330.919342 
	C235.529510,285.444489 235.461273,239.969345 235.212540,194.495407 
	C235.188782,190.153107 236.202240,188.905853 240.685013,188.937012 
	C271.166443,189.148926 301.650024,189.045776 332.598022,189.126343 
z"/>
</svg>