<?xml version="1.0" standalone="no"?>
<!DOCTYPE svg PUBLIC "-//W3C//DTD SVG 20010904//EN"
 "http://www.w3.org/TR/2001/REC-SVG-20010904/DTD/svg10.dtd">
<svg version="1.0" xmlns="http://www.w3.org/2000/svg"
 width="50" height="50" viewBox="0 0 50.000000 50.000000"
 preserveAspectRatio="xMidYMid meet">

<g transform="translate(0.000000,50.000000) scale(0.100000,-0.100000)"
fill="#FFFCF4" stroke="none">
<path d="M234 459 c-10 -17 13 -36 27 -22 12 12 4 33 -11 33 -5 0 -12 -5 -16
-11z"/>
<path d="M234 399 c-10 -17 13 -36 27 -22 12 12 4 33 -11 33 -5 0 -12 -5 -16
-11z"/>
<path d="M237 344 c-4 -4 -7 -48 -7 -97 l0 -90 -25 23 c-20 19 -28 21 -37 12
-10 -10 -2 -23 35 -59 l47 -47 45 44 c45 44 57 70 32 70 -8 0 -22 -10 -33 -21
-19 -21 -19 -21 -24 72 -5 84 -14 111 -33 93z"/>
<path d="M20 107 c0 -36 5 -68 12 -75 17 -17 419 -17 436 0 7 7 12 39 12 75 0
56 -2 63 -20 63 -18 0 -20 -7 -20 -55 l0 -55 -190 0 -190 0 0 55 c0 48 -2 55
-20 55 -18 0 -20 -7 -20 -63z"/>
</g>
</svg>
