<svg version="1.1" id="Layer_1" xmlns="http://www.w3.org/2000/svg" xmlns:xlink="http://www.w3.org/1999/xlink" x="0px" y="0px"
	 width="18" height="18" viewBox="0 0 600 600" enable-background="new 0 0 600 600" xml:space="preserve">
<path fill="#000000" opacity="0" stroke="none" 
	d="
M341.000000,601.000000 
	C227.333328,601.000000 114.166664,601.000000 1.000000,601.000000 
	C1.000000,401.000000 1.000000,201.000000 1.000000,1.000000 
	C201.000000,1.000000 401.000000,1.000000 601.000000,1.000000 
	C601.000000,201.000000 601.000000,401.000000 601.000000,601.000000 
	C514.500000,601.000000 428.000000,601.000000 341.000000,601.000000 
M428.789062,310.734833 
	C417.248901,295.902985 405.641205,281.123077 394.186920,266.225189 
	C381.904755,250.250427 367.589691,236.511551 350.372498,225.946915 
	C323.860626,209.678970 295.212738,205.103241 265.418396,213.359116 
	C228.425522,223.609680 198.855087,246.375809 172.614426,273.429108 
	C152.636581,294.025665 135.827591,317.158386 121.966652,342.410919 
	C111.850838,360.840393 103.175804,379.717133 98.377991,400.332031 
	C92.360352,426.188232 91.076828,451.950836 97.643059,477.883667 
	C104.635246,505.498810 120.912766,524.713501 148.468567,533.157776 
	C166.484238,538.678528 185.147415,539.229370 203.246170,534.427246 
	C219.415955,530.136902 235.085938,523.865723 250.807220,518.013916 
	C262.669952,513.598328 274.245636,507.515594 287.371521,510.500183 
	C299.180939,513.185364 311.138519,515.938354 322.350677,520.378601 
	C344.423492,529.120056 366.562134,535.791016 390.738373,533.067078 
	C414.565369,530.382507 435.623810,522.041321 452.146088,504.211578 
	C469.470947,485.515717 477.365662,462.761566 477.833405,437.718414 
	C478.443604,405.049011 467.278931,375.376770 451.687500,347.300385 
	C444.831818,334.954926 436.690399,323.323517 428.789062,310.734833 
M464.514984,168.912888 
	C466.257263,163.019638 468.211151,157.179306 469.700500,151.222809 
	C473.532776,135.896103 473.853760,120.256538 472.921722,104.615776 
	C471.772339,85.327148 467.567352,66.891571 457.541901,49.956657 
	C438.467072,17.735785 400.156403,14.038969 374.513672,26.539057 
	C357.697327,34.736549 344.925781,47.412979 334.719818,62.683830 
	C325.836609,75.975510 319.448364,90.438400 314.734680,105.878021 
	C308.977264,124.736214 306.926361,143.516129 310.511078,162.888657 
	C313.343750,178.196884 320.333557,191.577759 330.703430,202.935715 
	C341.095154,214.317657 354.404297,220.186661 369.912750,221.411423 
	C387.401428,222.792526 404.491455,222.149857 420.758545,214.630142 
	C441.081909,205.235336 454.809448,189.530319 464.514984,168.912888 
M256.687286,200.188080 
	C271.359955,189.347168 281.274414,175.023666 286.929199,157.829163 
	C292.789124,140.010849 294.992920,121.856201 290.691498,103.253647 
	C285.497253,80.789795 277.144928,59.824089 262.742584,41.512043 
	C250.059448,25.385900 234.589218,13.615830 213.840866,10.557553 
	C195.186218,7.807886 177.916122,11.666078 163.413177,24.246460 
	C151.307343,34.747501 143.241440,48.189461 138.516693,63.363369 
	C132.796310,81.734749 130.243393,100.579605 131.934723,119.924774 
	C133.645294,139.490112 136.711182,158.559219 147.739517,175.472260 
	C155.437134,187.277283 164.014160,198.221451 176.057404,205.919296 
	C199.949768,221.190872 235.603455,216.573090 256.687286,200.188080 
M429.293610,259.743591 
	C427.967804,269.912781 428.604034,279.889221 431.274048,289.859283 
	C437.290161,312.324005 449.784760,329.514008 471.141724,339.472351 
	C483.807068,345.377930 497.389893,346.917145 511.182281,345.902649 
	C530.733276,344.464661 548.119080,337.499664 562.482117,323.936096 
	C576.257568,310.927338 583.512451,294.430908 588.053772,276.275177 
	C593.313232,255.248795 594.940674,234.340637 589.498596,213.140305 
	C586.057922,199.736984 580.016907,187.749130 569.013855,179.166245 
	C548.393616,163.081543 525.500488,162.412903 501.867462,171.142563 
	C485.285950,177.267502 471.862976,187.991165 460.236633,201.222794 
	C445.407257,218.099823 433.439270,236.403564 429.293610,259.743591 
M74.729172,141.683838 
	C53.986710,138.986206 36.639885,144.642288 23.725321,161.905777 
	C15.887667,172.382736 12.436568,184.519760 10.424577,197.007339 
	C6.600344,220.742691 9.558082,244.122528 15.778543,267.161743 
	C23.720348,296.576477 41.085361,317.240723 71.522263,324.361023 
	C87.691437,328.143555 103.966637,327.441864 118.956917,318.684479 
	C137.158371,308.051117 148.069031,291.906952 152.336487,271.711945 
	C156.819397,250.497269 155.351486,229.742157 146.141190,209.408096 
	C137.700958,190.774155 127.015579,174.095245 111.844467,160.419586 
	C101.449753,151.049500 89.942329,143.613663 74.729172,141.683838 
z"/>
<path fill="#fffcf4" opacity="1.000000" stroke="none" 
	d="
M428.960907,311.051392 
	C436.690399,323.323517 444.831818,334.954926 451.687500,347.300385 
	C467.278931,375.376770 478.443604,405.049011 477.833405,437.718414 
	C477.365662,462.761566 469.470947,485.515717 452.146088,504.211578 
	C435.623810,522.041321 414.565369,530.382507 390.738373,533.067078 
	C366.562134,535.791016 344.423492,529.120056 322.350677,520.378601 
	C311.138519,515.938354 299.180939,513.185364 287.371521,510.500183 
	C274.245636,507.515594 262.669952,513.598328 250.807220,518.013916 
	C235.085938,523.865723 219.415955,530.136902 203.246170,534.427246 
	C185.147415,539.229370 166.484238,538.678528 148.468567,533.157776 
	C120.912766,524.713501 104.635246,505.498810 97.643059,477.883667 
	C91.076828,451.950836 92.360352,426.188232 98.377991,400.332031 
	C103.175804,379.717133 111.850838,360.840393 121.966652,342.410919 
	C135.827591,317.158386 152.636581,294.025665 172.614426,273.429108 
	C198.855087,246.375809 228.425522,223.609680 265.418396,213.359116 
	C295.212738,205.103241 323.860626,209.678970 350.372498,225.946915 
	C367.589691,236.511551 381.904755,250.250427 394.186920,266.225189 
	C405.641205,281.123077 417.248901,295.902985 428.960907,311.051392 
z"/>
<path fill="#fffcf4" opacity="1.000000" stroke="none" 
	d="
M464.343872,169.253723 
	C454.809448,189.530319 441.081909,205.235336 420.758545,214.630142 
	C404.491455,222.149857 387.401428,222.792526 369.912750,221.411423 
	C354.404297,220.186661 341.095154,214.317657 330.703430,202.935715 
	C320.333557,191.577759 313.343750,178.196884 310.511078,162.888657 
	C306.926361,143.516129 308.977264,124.736214 314.734680,105.878021 
	C319.448364,90.438400 325.836609,75.975510 334.719818,62.683830 
	C344.925781,47.412979 357.697327,34.736549 374.513672,26.539057 
	C400.156403,14.038969 438.467072,17.735785 457.541901,49.956657 
	C467.567352,66.891571 471.772339,85.327148 472.921722,104.615776 
	C473.853760,120.256538 473.532776,135.896103 469.700500,151.222809 
	C468.211151,157.179306 466.257263,163.019638 464.343872,169.253723 
z"/>
<path fill="#fffcf4" opacity="1.000000" stroke="none" 
	d="
M256.393250,200.398590 
	C235.603455,216.573090 199.949768,221.190872 176.057404,205.919296 
	C164.014160,198.221451 155.437134,187.277283 147.739517,175.472260 
	C136.711182,158.559219 133.645294,139.490112 131.934723,119.924774 
	C130.243393,100.579605 132.796310,81.734749 138.516693,63.363369 
	C143.241440,48.189461 151.307343,34.747501 163.413177,24.246460 
	C177.916122,11.666078 195.186218,7.807886 213.840866,10.557553 
	C234.589218,13.615830 250.059448,25.385900 262.742584,41.512043 
	C277.144928,59.824089 285.497253,80.789795 290.691498,103.253647 
	C294.992920,121.856201 292.789124,140.010849 286.929199,157.829163 
	C281.274414,175.023666 271.359955,189.347168 256.393250,200.398590 
z"/>
<path fill="#fffcf4" opacity="1.000000" stroke="none" 
	d="
M429.363098,259.373657 
	C433.439270,236.403564 445.407257,218.099823 460.236633,201.222794 
	C471.862976,187.991165 485.285950,177.267502 501.867462,171.142563 
	C525.500488,162.412903 548.393616,163.081543 569.013855,179.166245 
	C580.016907,187.749130 586.057922,199.736984 589.498596,213.140305 
	C594.940674,234.340637 593.313232,255.248795 588.053772,276.275177 
	C583.512451,294.430908 576.257568,310.927338 562.482117,323.936096 
	C548.119080,337.499664 530.733276,344.464661 511.182281,345.902649 
	C497.389893,346.917145 483.807068,345.377930 471.141724,339.472351 
	C449.784760,329.514008 437.290161,312.324005 431.274048,289.859283 
	C428.604034,279.889221 427.967804,269.912781 429.363098,259.373657 
z"/>
<path fill="#fffcf4" opacity="1.000000" stroke="none" 
	d="
M75.164215,141.756104 
	C89.942329,143.613663 101.449753,151.049500 111.844467,160.419586 
	C127.015579,174.095245 137.700958,190.774155 146.141190,209.408096 
	C155.351486,229.742157 156.819397,250.497269 152.336487,271.711945 
	C148.069031,291.906952 137.158371,308.051117 118.956917,318.684479 
	C103.966637,327.441864 87.691437,328.143555 71.522263,324.361023 
	C41.085361,317.240723 23.720348,296.576477 15.778543,267.161743 
	C9.558082,244.122528 6.600344,220.742691 10.424577,197.007339 
	C12.436568,184.519760 15.887667,172.382736 23.725321,161.905777 
	C36.639885,144.642288 53.986710,138.986206 75.164215,141.756104 
z"/>
</svg>