<?xml version="1.0" standalone="no"?>
<!DOCTYPE svg PUBLIC "-//W3C//DTD SVG 20010904//EN"
 "http://www.w3.org/TR/2001/REC-SVG-20010904/DTD/svg10.dtd">
<svg version="1.0" xmlns="http://www.w3.org/2000/svg"
 width="50" height="50" viewBox="0 0 50.000000 50.000000"
 preserveAspectRatio="xMidYMid meet">

<g transform="translate(0.000000,50.000000) scale(0.100000,-0.100000)"
fill="#FFFCF4" stroke="none">
<path d="M155 456 c-60 -28 -87 -56 -114 -116 -36 -79 -19 -183 42 -249 33
-36 115 -71 167 -71 52 0 134 35 167 71 34 37 63 110 63 159 0 52 -35 134 -71
167 -37 34 -110 63 -159 63 -27 0 -65 -10 -95 -24z m214 -123 c0 -9 -101 -95
-115 -100 -10 -3 -116 82 -122 98 -2 5 51 9 117 9 67 0 121 -3 120 -7z m-206
-61 l27 -28 -30 -22 -30 -23 0 51 c0 27 1 50 3 50 2 0 15 -13 30 -28z m207
-22 l0 -51 -30 23 -30 22 27 28 c15 15 28 28 30 28 2 0 3 -23 3 -50z m-140
-32 c16 -10 24 -10 41 0 17 11 24 11 42 -2 39 -27 57 -43 57 -50 0 -3 -54 -6
-120 -6 -66 0 -120 3 -120 8 1 6 69 62 77 62 2 0 12 -6 23 -12z"/>
</g>
</svg>
